<?xml version="1.0" encoding="UTF-8"?>
<svg width="139px" height="114px" viewBox="0 0 139 114" version="1.1" xmlns="http://www.w3.org/2000/svg" xmlns:xlink="http://www.w3.org/1999/xlink">
    <!-- Generator: Sketch 61 (89581) - https://sketch.com -->
    <title>Group</title>
    <desc>Created with Sketch.</desc>
    <g id="Page-1" stroke="none" stroke-width="1" fill="none" fill-rule="evenodd">
        <g id="Group" transform="translate(0.000000, 3.000000)">
            <polygon id="Triangle" fill="#EEEEEE" points="70 14 139 111 1 111"></polygon>
            <path d="M130,43 C124.170833,43 119.247917,42.1783333 115.00625,40.79 C108.831042,38.7711319 104.097917,35.551875 100.114583,31.9216667 C94.28125,26.6079861 90.05,20.4136111 85.2416667,15.8047222 C81.06875,11.805 76.4625,9 70,9 C63.5208333,9 58.9083333,11.8191667 54.7270833,15.8342361 C49.9270833,20.4443056 45.6979167,26.6304167 39.8708333,31.9358333 C35.8541667,35.5930764 31.0770833,38.8314583 24.8291667,40.843125 C20.625,42.1995833 15.7541667,43 10,43" id="path11" stroke="#EEEEEE" stroke-width="5"></path>
            <path d="M138.5625,9 C131.858958,9 126.197604,8.7825 121.319687,8.415 C114.218198,7.88059375 108.775104,7.0284375 104.194271,6.0675 C97.4859375,4.6609375 92.62,3.02125 87.0904167,1.80125 C82.2915625,0.7425 76.994375,0 69.5625,0 C62.1114583,0 56.8070833,0.74625 51.9986458,1.8090625 C46.4786458,3.029375 41.6151042,4.666875 34.9139583,6.07125 C30.2947917,7.03934375 24.8011458,7.8965625 17.6160417,8.4290625 C12.78125,8.788125 7.17979167,9 0.5625,9" id="path11" stroke="#EEEEEE" stroke-width="5"></path>
        </g>
    </g>
</svg>